<svg xmlns="http://www.w3.org/2000/svg" viewBox="0 0 512 317.07"><defs><style>.cls-1,.cls-2,.cls-3{fill:none;stroke-miterlimit:10;stroke-width:3px;}.cls-1{stroke:#e11;}.cls-2{stroke:#039;}.cls-3{stroke:#39c;}.cls-4{fill:#e11;}.cls-11,.cls-15,.cls-5{fill:#fff;}.cls-6{fill:#039;}.cls-7{fill:#39c;}.cls-8{fill:#4d4d4d;}.cls-10,.cls-9{fill:#231815;}.cls-10{font-size:10px;font-family:MiSans-Medium, MiSans;font-weight:500;}.cls-11{font-size:18px;font-family:ZillaSlab-Bold, Zilla Slab;font-weight:700;}.cls-12{letter-spacing:-0.02em;}.cls-13{letter-spacing:-0.02em;}.cls-14{letter-spacing:-0.01em;}.cls-15{font-size:28px;font-family:SourceHanSerifSC-Heavy-GBpc-EUC-H, Source Han Serif SC;}</style></defs><g id="图层_1" data-name="图层 1"><line class="cls-1" x1="256" y1="308.62" x2="256" y2="134.02"/><polyline class="cls-2" points="257.32 193.32 257.32 185.12 255.62 183.42 205.8 183.42"/><polyline class="cls-3" points="252.51 204 252.51 207.47 250.96 209.02 219.8 209.02"/><path class="cls-3" d="M249.55,199.12"/><rect class="cls-4" x="247" y="129.5" width="18" height="9" rx="4"/><path class="cls-5" d="M251.26,131.1v5.59h-.79V132l-.79.49v-.81l.79-.53Z"/><path class="cls-5" d="M252.57,134.31h2.58v.75h-2.58Z"/><path class="cls-5" d="M257.9,136.75a1.6,1.6,0,0,1-1.2-.43,1.68,1.68,0,0,1-.4-1.16v-2.54a1.62,1.62,0,0,1,.41-1.17,1.58,1.58,0,0,1,1.19-.42,1.55,1.55,0,0,1,1.19.42,1.62,1.62,0,0,1,.41,1.17v2.54a1.61,1.61,0,0,1-.41,1.16A1.56,1.56,0,0,1,257.9,136.75Zm0-.75a.77.77,0,0,0,.62-.23.89.89,0,0,0,.19-.61v-2.54a.9.9,0,0,0-.19-.62,1,1,0,0,0-1.24,0,.9.9,0,0,0-.19.62v2.54a.89.89,0,0,0,.19.61A.77.77,0,0,0,257.9,136Z"/><path class="cls-5" d="M262,131.1v5.59h-.79V132l-.79.49v-.81l.79-.53Z"/><rect class="cls-4" x="247" y="178.5" width="18" height="9" rx="4"/><path class="cls-5" d="M250.28,180.1v5.59h-.78V181l-.8.49v-.81l.8-.53Z"/><path class="cls-5" d="M251.51,182.74h3.12v.74h-3.12Zm2-1.19v3.12h-.78v-3.12Z"/><path class="cls-5" d="M257.31,185.75a1.57,1.57,0,0,1-1.2-.43,1.64,1.64,0,0,1-.4-1.16v-2.54a1.61,1.61,0,0,1,.4-1.17,1.91,1.91,0,0,1,2.39,0,1.61,1.61,0,0,1,.4,1.17v2.54a1.6,1.6,0,0,1-.4,1.16A1.59,1.59,0,0,1,257.31,185.75Zm0-.75a.79.79,0,0,0,.62-.23,1,1,0,0,0,.19-.61v-2.54a1,1,0,0,0-.19-.62.79.79,0,0,0-.62-.23.76.76,0,0,0-.62.23.91.91,0,0,0-.2.62v2.54a.9.9,0,0,0,.2.61A.76.76,0,0,0,257.31,185Z"/><path class="cls-5" d="M261.5,185.75a1.57,1.57,0,0,1-1.2-.43,1.64,1.64,0,0,1-.4-1.16v-2.54a1.66,1.66,0,0,1,.4-1.17,1.91,1.91,0,0,1,2.39,0,1.61,1.61,0,0,1,.4,1.17v2.54a1.6,1.6,0,0,1-.4,1.16A1.59,1.59,0,0,1,261.5,185.75Zm0-.75a.79.79,0,0,0,.62-.23.89.89,0,0,0,.19-.61v-2.54a.9.9,0,0,0-.19-.62.79.79,0,0,0-.62-.23.76.76,0,0,0-.62.23.9.9,0,0,0-.19.62v2.54a.89.89,0,0,0,.19.61A.76.76,0,0,0,261.5,185Z"/><rect class="cls-6" x="247" y="187.5" width="18" height="9" rx="4"/><path class="cls-5" d="M248.12,194.69V194l1.95-2.6a1.93,1.93,0,0,0,.26-.46,1.12,1.12,0,0,0,.1-.45h0a.69.69,0,0,0-.2-.52.79.79,0,0,0-.56-.18.75.75,0,0,0-.55.2.9.9,0,0,0-.26.57h-.81a1.85,1.85,0,0,1,.53-1.12,1.5,1.5,0,0,1,1.09-.4,1.65,1.65,0,0,1,1.16.38,1.37,1.37,0,0,1,.41,1.08h0a1.79,1.79,0,0,1-.12.62,2.69,2.69,0,0,1-.34.62l-1.62,2.2h2.11v.75Z"/><path class="cls-5" d="M252.24,191.74h3.12v.74h-3.12Zm1.95-1.19v3.12h-.79v-3.12Z"/><path class="cls-5" d="M258,194.75a1.6,1.6,0,0,1-1.2-.43,1.68,1.68,0,0,1-.4-1.16v-2.54a1.62,1.62,0,0,1,.41-1.17,1.9,1.9,0,0,1,2.38,0,1.62,1.62,0,0,1,.41,1.17v2.54a1.61,1.61,0,0,1-.41,1.16A1.56,1.56,0,0,1,258,194.75Zm0-.75a.77.77,0,0,0,.62-.23.89.89,0,0,0,.19-.61v-2.54a.9.9,0,0,0-.19-.62,1,1,0,0,0-1.24,0,.9.9,0,0,0-.19.62v2.54a.89.89,0,0,0,.19.61A.77.77,0,0,0,258,194Z"/><path class="cls-5" d="M262.22,194.75a1.6,1.6,0,0,1-1.2-.43,1.68,1.68,0,0,1-.39-1.16v-2.54a1.61,1.61,0,0,1,.4-1.17,1.91,1.91,0,0,1,2.39,0,1.66,1.66,0,0,1,.4,1.17v2.54a1.65,1.65,0,0,1-.4,1.16A1.6,1.6,0,0,1,262.22,194.75Zm0-.75a.76.76,0,0,0,.62-.23.89.89,0,0,0,.19-.61v-2.54a.9.9,0,0,0-.19-.62.76.76,0,0,0-.62-.23.77.77,0,0,0-.62.23.9.9,0,0,0-.19.62v2.54a.89.89,0,0,0,.19.61A.77.77,0,0,0,262.22,194Z"/><rect class="cls-7" x="247" y="196.5" width="18" height="9" rx="4"/><path class="cls-5" d="M249.6,203.75a1.84,1.84,0,0,1-.83-.18,1.41,1.41,0,0,1-.57-.49,1.85,1.85,0,0,1-.27-.78h.8a.72.72,0,0,0,.28.52.94.94,0,0,0,.59.17.85.85,0,0,0,.61-.21.76.76,0,0,0,.21-.58V202a1,1,0,0,0-.2-.65.75.75,0,0,0-.58-.23h-.39v-.74h.39a.66.66,0,0,0,.51-.2.78.78,0,0,0,.18-.55v-.18a.66.66,0,0,0-.19-.51.77.77,0,0,0-.54-.18.76.76,0,0,0-.5.17.93.93,0,0,0-.29.53H248a1.85,1.85,0,0,1,.53-1.07,1.52,1.52,0,0,1,1-.38,1.58,1.58,0,0,1,1.12.38,1.42,1.42,0,0,1,.39,1.07v.09a1.19,1.19,0,0,1-.22.73,1.33,1.33,0,0,1-.64.46,1.06,1.06,0,0,1,.7.45,1.47,1.47,0,0,1,.26.89v.09a1.51,1.51,0,0,1-.42,1.14A1.65,1.65,0,0,1,249.6,203.75Z"/><path class="cls-5" d="M252.28,200.74h3.13v.74h-3.13Zm2-1.19v3.12h-.79v-3.12Z"/><path class="cls-5" d="M258.08,203.75a1.6,1.6,0,0,1-1.2-.43,1.64,1.64,0,0,1-.4-1.16v-2.54a1.62,1.62,0,0,1,.41-1.17,1.9,1.9,0,0,1,2.38,0,1.61,1.61,0,0,1,.4,1.17v2.54a1.6,1.6,0,0,1-.4,1.16A1.57,1.57,0,0,1,258.08,203.75Zm0-.75a.77.77,0,0,0,.62-.23.89.89,0,0,0,.19-.61v-2.54a.9.9,0,0,0-.19-.62.77.77,0,0,0-.62-.23.76.76,0,0,0-.62.23.9.9,0,0,0-.19.62v2.54a.89.89,0,0,0,.19.61A.76.76,0,0,0,258.08,203Z"/><path class="cls-5" d="M262.27,203.75a1.6,1.6,0,0,1-1.2-.43,1.68,1.68,0,0,1-.4-1.16v-2.54a1.62,1.62,0,0,1,.41-1.17,1.58,1.58,0,0,1,1.19-.42,1.55,1.55,0,0,1,1.19.42,1.62,1.62,0,0,1,.41,1.17v2.54a1.61,1.61,0,0,1-.41,1.16A1.56,1.56,0,0,1,262.27,203.75Zm0-.75a.77.77,0,0,0,.62-.23.89.89,0,0,0,.19-.61v-2.54a.9.9,0,0,0-.19-.62,1,1,0,0,0-1.24,0,.9.9,0,0,0-.19.62v2.54a.89.89,0,0,0,.19.61A.77.77,0,0,0,262.27,203Z"/><rect class="cls-7" x="211" y="204.5" width="18" height="9" rx="4"/><path class="cls-5" d="M214.58,211.75a1.84,1.84,0,0,1-.83-.18,1.41,1.41,0,0,1-.57-.49,1.85,1.85,0,0,1-.27-.78h.8a.72.72,0,0,0,.28.52.92.92,0,0,0,.59.17.85.85,0,0,0,.61-.21.76.76,0,0,0,.21-.58V210a1,1,0,0,0-.2-.65.75.75,0,0,0-.58-.23h-.4v-.74h.4a.66.66,0,0,0,.51-.2.78.78,0,0,0,.18-.55v-.18a.66.66,0,0,0-.19-.51.77.77,0,0,0-.54-.18.76.76,0,0,0-.5.17.88.88,0,0,0-.29.53H213a1.79,1.79,0,0,1,.53-1.07,1.5,1.5,0,0,1,1.05-.38,1.58,1.58,0,0,1,1.12.38,1.42,1.42,0,0,1,.39,1.07v.09a1.19,1.19,0,0,1-.22.73,1.36,1.36,0,0,1-.65.46,1.06,1.06,0,0,1,.71.45,1.47,1.47,0,0,1,.26.89v.09a1.51,1.51,0,0,1-.42,1.14A1.65,1.65,0,0,1,214.58,211.75Z"/><path class="cls-5" d="M217.34,209.31h2.58v.75h-2.58Z"/><path class="cls-5" d="M222.67,211.75a1.6,1.6,0,0,1-1.2-.43,1.68,1.68,0,0,1-.39-1.16v-2.54a1.61,1.61,0,0,1,.4-1.17,1.91,1.91,0,0,1,2.39,0,1.66,1.66,0,0,1,.4,1.17v2.54a1.65,1.65,0,0,1-.4,1.16A1.6,1.6,0,0,1,222.67,211.75Zm0-.75a.76.76,0,0,0,.62-.23.89.89,0,0,0,.19-.61v-2.54a.9.9,0,0,0-.19-.62.76.76,0,0,0-.62-.23.79.79,0,0,0-.62.23.9.9,0,0,0-.19.62v2.54a.89.89,0,0,0,.19.61A.79.79,0,0,0,222.67,211Z"/><path class="cls-5" d="M226.77,206.1v5.59H226V207l-.8.49v-.81l.8-.53Z"/><rect class="cls-6" x="197" y="179" width="18" height="9" rx="4"/><path class="cls-5" d="M199.1,186.19v-.68l2-2.6a1.93,1.93,0,0,0,.26-.46,1.12,1.12,0,0,0,.1-.45h0a.69.69,0,0,0-.2-.52.8.8,0,0,0-.56-.18.75.75,0,0,0-.55.2.9.9,0,0,0-.26.57H199a1.8,1.8,0,0,1,.53-1.12,1.5,1.5,0,0,1,1.09-.4,1.65,1.65,0,0,1,1.16.38,1.4,1.4,0,0,1,.41,1.08h0a1.79,1.79,0,0,1-.12.62,2.69,2.69,0,0,1-.34.62l-1.62,2.2h2.11v.75Z"/><path class="cls-5" d="M203.29,183.81h2.58v.75h-2.58Z"/><path class="cls-5" d="M208.62,186.25a1.56,1.56,0,0,1-1.19-.43,1.64,1.64,0,0,1-.4-1.16v-2.54a1.61,1.61,0,0,1,.4-1.17,1.91,1.91,0,0,1,2.39,0,1.61,1.61,0,0,1,.4,1.17v2.54a1.45,1.45,0,0,1-1.6,1.59Zm0-.75a.79.79,0,0,0,.63-.23,1,1,0,0,0,.19-.61v-2.54a1,1,0,0,0-.19-.62.79.79,0,0,0-.63-.23.79.79,0,0,0-.62.23,1,1,0,0,0-.19.62v2.54a1,1,0,0,0,.19.61A.79.79,0,0,0,208.62,185.5Z"/><path class="cls-5" d="M212.72,180.6v5.59h-.78v-4.74l-.8.49v-.81l.8-.53Z"/><rect class="cls-4" x="247" y="242.5" width="18" height="9" rx="4"/><path class="cls-5" d="M251.07,244.1v5.59h-.79V245l-.79.49v-.81l.79-.53Z"/><path class="cls-5" d="M252.3,246.74h3.12v.74H252.3Zm1.95-1.19v3.12h-.78v-3.12Z"/><path class="cls-5" d="M258.09,249.75a1.6,1.6,0,0,1-1.2-.43,1.68,1.68,0,0,1-.39-1.16v-2.54a1.61,1.61,0,0,1,.4-1.17,1.91,1.91,0,0,1,2.39,0,1.66,1.66,0,0,1,.4,1.17v2.54a1.65,1.65,0,0,1-.4,1.16A1.6,1.6,0,0,1,258.09,249.75Zm0-.75a.76.76,0,0,0,.62-.23.89.89,0,0,0,.19-.61v-2.54a.9.9,0,0,0-.19-.62.76.76,0,0,0-.62-.23.77.77,0,0,0-.62.23.9.9,0,0,0-.19.62v2.54a.89.89,0,0,0,.19.61A.77.77,0,0,0,258.09,249Z"/><path class="cls-5" d="M262.19,244.1v5.59h-.78V245l-.8.49v-.81l.8-.53Z"/><rect class="cls-4" x="247" y="305.5" width="18" height="9" rx="4"/><path class="cls-5" d="M250.34,307.1v5.59h-.78V308l-.8.49v-.81l.8-.53Z"/><path class="cls-5" d="M251.57,309.74h3.12v.75h-3.12Zm2-1.19v3.12h-.79v-3.12Z"/><path class="cls-5" d="M257.37,312.75a1.58,1.58,0,0,1-1.2-.43,1.64,1.64,0,0,1-.4-1.16v-2.54a1.62,1.62,0,0,1,.41-1.17,1.55,1.55,0,0,1,1.19-.42,1.58,1.58,0,0,1,1.19.42,1.61,1.61,0,0,1,.4,1.17v2.54a1.6,1.6,0,0,1-.4,1.16A1.59,1.59,0,0,1,257.37,312.75Zm0-.75a.82.82,0,0,0,.62-.22.94.94,0,0,0,.19-.62v-2.54A.9.9,0,0,0,258,308a.79.79,0,0,0-.62-.23.76.76,0,0,0-.62.23.9.9,0,0,0-.19.62v2.54a.94.94,0,0,0,.19.62A.79.79,0,0,0,257.37,312Z"/><path class="cls-5" d="M260,312.69V312l2-2.6a2.4,2.4,0,0,0,.27-.46,1.29,1.29,0,0,0,.09-.45h0a.69.69,0,0,0-.2-.52.91.91,0,0,0-1.11,0,.9.9,0,0,0-.26.57H260a1.85,1.85,0,0,1,.53-1.12,1.5,1.5,0,0,1,1.09-.4,1.65,1.65,0,0,1,1.16.38,1.37,1.37,0,0,1,.41,1.08h0a1.75,1.75,0,0,1-.12.62,2.36,2.36,0,0,1-.34.62l-1.62,2.2h2.12v.75Z"/><rect class="cls-8" width="512" height="64"/></g><g id="图层_2" data-name="图层 2"><path class="cls-9" d="M266.42,142.86v-3.5H267v1.41h1.67v-1.41h.58v3.5h-.58v-1.55H267v1.55Z"/><path class="cls-9" d="M271,142.91a1.23,1.23,0,0,1-.68-.18,1.12,1.12,0,0,1-.43-.46,1.41,1.41,0,0,1-.15-.65,1.44,1.44,0,0,1,.15-.65,1.21,1.21,0,0,1,.43-.47,1.45,1.45,0,0,1,1.36,0,1.21,1.21,0,0,1,.43.47,1.44,1.44,0,0,1,.15.65,1.41,1.41,0,0,1-.15.65,1.12,1.12,0,0,1-.43.46A1.23,1.23,0,0,1,271,142.91Zm0-.47a.62.62,0,0,0,.51-.23.89.89,0,0,0,.18-.59.93.93,0,0,0-.18-.6.7.7,0,0,0-1,0,.93.93,0,0,0-.18.6.89.89,0,0,0,.18.59A.62.62,0,0,0,271,142.44Z"/><path class="cls-9" d="M272.68,142.86v-2.48h.5l0,.46-.15-.14a1.25,1.25,0,0,1,.39-.27,1,1,0,0,1,.46-.1.83.83,0,0,1,.73.32,1.34,1.34,0,0,1,.24.83v1.38h-.56v-1.35a.9.9,0,0,0-.13-.54.49.49,0,0,0-.42-.17.71.71,0,0,0-.39.11.84.84,0,0,0-.25.3l.1-.29v1.94Z"/><path class="cls-9" d="M276.09,142.91a.7.7,0,0,1-.37-.09.58.58,0,0,1-.21-.23.81.81,0,0,1-.06-.31v-3.17H276V142a1,1,0,0,0,0,.29.13.13,0,0,0,.09.12.62.62,0,0,0,.21,0l0,.46Z"/><path class="cls-9" d="M276.72,139.94v-.58h.56v.58Zm0,2.92v-2.48h.56v2.48Z"/><path class="cls-9" d="M277.87,142.86v-2.48h.5l0,.46-.15-.14a1.25,1.25,0,0,1,.39-.27,1,1,0,0,1,.46-.1.85.85,0,0,1,.73.32,1.34,1.34,0,0,1,.24.83v1.38h-.56v-1.35a1,1,0,0,0-.13-.54.5.5,0,0,0-.42-.17.71.71,0,0,0-.39.11.75.75,0,0,0-.25.3l.09-.29v1.94Z"/><path class="cls-9" d="M281.61,142.91a1.11,1.11,0,0,1-.58-.14.84.84,0,0,1-.32-.4,1.67,1.67,0,0,1-.11-.62v-1.37h.56v1.33a1,1,0,0,0,.12.54.46.46,0,0,0,.4.18.66.66,0,0,0,.37-.1.61.61,0,0,0,.23-.29l-.09.29v-2h.56v2.48h-.52l-.05-.45.13.14a.82.82,0,0,1-.29.26A.92.92,0,0,1,281.61,142.91Z"/><path class="cls-9" d="M283.34,142.86v-2.48h.46l.06.4-.12-.1a1.32,1.32,0,0,1,.38-.25,1,1,0,0,1,.46-.1,1,1,0,0,1,.35.06.75.75,0,0,1,.28.18,1,1,0,0,1,.19.32l-.14,0a.89.89,0,0,1,.35-.37,1.07,1.07,0,0,1,.55-.14,1.12,1.12,0,0,1,.55.13.83.83,0,0,1,.32.39,1.51,1.51,0,0,1,.1.6v1.41h-.56v-1.38a1,1,0,0,0-.11-.51.45.45,0,0,0-.39-.17.68.68,0,0,0-.27,0,.5.5,0,0,0-.17.15.67.67,0,0,0-.09.21,1,1,0,0,0,0,.25v1.4H285v-1.35a1.15,1.15,0,0,0-.06-.41.51.51,0,0,0-.17-.23.65.65,0,0,0-.29-.07.71.71,0,0,0-.39.11.75.75,0,0,0-.25.3l.1-.3v2Z"/><path class="cls-9" d="M288.25,142.91a.79.79,0,0,1-.38-.09.65.65,0,0,1-.26-.26.71.71,0,0,1-.1-.39.61.61,0,0,1,.1-.36.85.85,0,0,1,.25-.25,1.39,1.39,0,0,1,.35-.16,1.72,1.72,0,0,1,.38-.08l.35,0a.56.56,0,0,0-.12-.37.53.53,0,0,0-.36-.1,1.17,1.17,0,0,0-.32,0,2.05,2.05,0,0,0-.35.16l-.06-.45a2,2,0,0,1,.42-.18,1.76,1.76,0,0,1,.46-.06,1,1,0,0,1,.49.11.65.65,0,0,1,.3.33,1.6,1.6,0,0,1,.1.63V142a1.8,1.8,0,0,0,0,.28.17.17,0,0,0,.07.13.28.28,0,0,0,.15,0h.07l-.06.46h-.16a.79.79,0,0,1-.28,0,.54.54,0,0,1-.18-.11.52.52,0,0,1-.12-.17.86.86,0,0,1-.33.23A1.07,1.07,0,0,1,288.25,142.91Zm.2-.43a.81.81,0,0,0,.49-.24v-.57a1.44,1.44,0,0,0-.43.06.7.7,0,0,0-.3.15.34.34,0,0,0-.12.27.33.33,0,0,0,.09.25A.41.41,0,0,0,288.45,142.48Z"/><text class="cls-10" transform="translate(266.05 137.11)">太衒</text><path class="cls-9" d="M267,202.91a.68.68,0,0,1-.37-.09.52.52,0,0,1-.21-.23.81.81,0,0,1-.06-.31v-3.17h.56V202a1.75,1.75,0,0,0,0,.29.16.16,0,0,0,.1.12.62.62,0,0,0,.21,0l-.06.46Z"/><path class="cls-9" d="M268.56,202.91a1.07,1.07,0,0,1-.57-.14.86.86,0,0,1-.33-.4,1.67,1.67,0,0,1-.11-.62v-1.37h.56v1.33a.9.9,0,0,0,.13.54.43.43,0,0,0,.39.18.62.62,0,0,0,.37-.1.7.7,0,0,0,.24-.29l-.1.29v-2h.56v2.48h-.51l-.06-.45.13.14a.82.82,0,0,1-.29.26A.92.92,0,0,1,268.56,202.91Z"/><path class="cls-9" d="M271.55,202.91a1.14,1.14,0,0,1-.49-.11.94.94,0,0,1-.37-.29l.16-.11-.05.46h-.51v-3.75h.55v1.71l-.13-.09a1.16,1.16,0,0,1,.37-.29,1,1,0,0,1,.47-.11,1,1,0,0,1,.61.18,1.09,1.09,0,0,1,.38.47,1.67,1.67,0,0,1,0,1.29,1.1,1.1,0,0,1-.39.46A1,1,0,0,1,271.55,202.91Zm-.07-.47a.58.58,0,0,0,.34-.11A.7.7,0,0,0,272,202a1.29,1.29,0,0,0,0-.84.64.64,0,0,0-.21-.29.58.58,0,0,0-.34-.11.69.69,0,0,0-.36.1.62.62,0,0,0-.22.28,1,1,0,0,0-.08.44,1,1,0,0,0,.08.44.53.53,0,0,0,.22.28A.61.61,0,0,0,271.48,202.44Z"/><path class="cls-9" d="M274.23,202.91a1.21,1.21,0,0,1-.68-.18,1.12,1.12,0,0,1-.43-.46,1.41,1.41,0,0,1-.15-.65,1.44,1.44,0,0,1,.15-.65,1.16,1.16,0,0,1,1.11-.64,1.25,1.25,0,0,1,.68.17,1.21,1.21,0,0,1,.43.47,1.44,1.44,0,0,1,.15.65,1.41,1.41,0,0,1-.15.65,1.12,1.12,0,0,1-.43.46A1.25,1.25,0,0,1,274.23,202.91Zm0-.47a.62.62,0,0,0,.51-.23.89.89,0,0,0,.18-.59.93.93,0,0,0-.18-.6.7.7,0,0,0-1,0,.93.93,0,0,0-.18.6.89.89,0,0,0,.18.59A.62.62,0,0,0,274.23,202.44Z"/><path class="cls-9" d="M276.57,202.86l-1-2.48h.57l.65,1.81.63-1.81H278l-1,2.48Z"/><path class="cls-9" d="M278.36,199.94v-.58h.55v.58Zm0,2.92v-2.48h.55v2.48Z"/><path class="cls-9" d="M280.65,202.91a1.31,1.31,0,0,1-.71-.18,1.06,1.06,0,0,1-.43-.46,1.37,1.37,0,0,1-.15-.64,1.59,1.59,0,0,1,.14-.66,1.17,1.17,0,0,1,.44-.47,1.38,1.38,0,0,1,.74-.17,1.45,1.45,0,0,1,.37,0,1.72,1.72,0,0,1,.3.11l-.06.46a1.69,1.69,0,0,0-.27-.1,1.55,1.55,0,0,0-.31,0,.78.78,0,0,0-.58.22.89.89,0,0,0-.2.6.9.9,0,0,0,.2.59.75.75,0,0,0,.58.23,1,1,0,0,0,.3,0,1.39,1.39,0,0,0,.28-.12l.06.47a1.46,1.46,0,0,1-.3.11A1.75,1.75,0,0,1,280.65,202.91Z"/><path class="cls-9" d="M283,202.91a1.44,1.44,0,0,1-.75-.18,1.22,1.22,0,0,1-.45-.48,1.41,1.41,0,0,1-.15-.65,1.46,1.46,0,0,1,.14-.63,1.17,1.17,0,0,1,1.08-.64,1.18,1.18,0,0,1,.58.14.88.88,0,0,1,.36.38,1.09,1.09,0,0,1,.13.55s0,.1,0,.15,0,.1,0,.15h-1.68a.88.88,0,0,0,.15.44.76.76,0,0,0,.3.23,1.11,1.11,0,0,0,.37.07,1.67,1.67,0,0,0,.39-.05,2.09,2.09,0,0,0,.35-.13l0,.46a2,2,0,0,1-.35.13A1.75,1.75,0,0,1,283,202.91Zm-.74-1.59h1.11a.7.7,0,0,0-.05-.25.44.44,0,0,0-.17-.19.5.5,0,0,0-.29-.08.56.56,0,0,0-.41.15A.73.73,0,0,0,282.21,201.32Z"/><path class="cls-9" d="M285.54,202.86v-3.5h1.31a1.86,1.86,0,0,1,.89.21,1.47,1.47,0,0,1,.61.6,2,2,0,0,1,0,1.88,1.47,1.47,0,0,1-.61.6,1.86,1.86,0,0,1-.89.21Zm.58-.52h.73a1.11,1.11,0,0,0,.6-.15,1,1,0,0,0,.37-.43,1.82,1.82,0,0,0,0-1.3.92.92,0,0,0-.37-.43,1.11,1.11,0,0,0-.6-.15h-.73Z"/><path class="cls-9" d="M290.14,202.91a1.25,1.25,0,0,1-.68-.18,1.12,1.12,0,0,1-.43-.46,1.41,1.41,0,0,1-.15-.65A1.44,1.44,0,0,1,289,201a1.21,1.21,0,0,1,.43-.47,1.25,1.25,0,0,1,.68-.17,1.23,1.23,0,0,1,.68.17,1.14,1.14,0,0,1,.43.47,1.44,1.44,0,0,1,.15.65,1.41,1.41,0,0,1-.15.65,1.06,1.06,0,0,1-.43.46A1.23,1.23,0,0,1,290.14,202.91Zm0-.47a.62.62,0,0,0,.51-.23.89.89,0,0,0,.18-.59.93.93,0,0,0-.18-.6.7.7,0,0,0-1,0,.93.93,0,0,0-.18.6.89.89,0,0,0,.18.59A.62.62,0,0,0,290.14,202.44Z"/><path class="cls-9" d="M292.48,202.86l-1-2.48h.57l.64,1.81.64-1.81H294l-.95,2.48Z"/><path class="cls-9" d="M294.27,199.94v-.58h.56v.58Zm0,2.92v-2.48h.56v2.48Z"/><path class="cls-9" d="M295.42,202.86v-2.48h.5l0,.46-.15-.14a1.25,1.25,0,0,1,.39-.27,1,1,0,0,1,.46-.1.83.83,0,0,1,.73.32,1.34,1.34,0,0,1,.24.83v1.38h-.56v-1.35a.9.9,0,0,0-.13-.54.49.49,0,0,0-.42-.17.71.71,0,0,0-.39.11.84.84,0,0,0-.25.3l.1-.29v1.94Z"/><path class="cls-9" d="M298.19,199.94v-.58h.56v.58Zm0,2.92v-2.48h.56v2.48Z"/><path class="cls-9" d="M299.15,202.86l1.41-2.23.06.22h-1.37v-.47h2.06l-1.42,2.23-.08-.23h1.49v.48Z"/><path class="cls-9" d="M302.25,202.91a.75.75,0,0,1-.37-.09.68.68,0,0,1-.27-.26.8.8,0,0,1-.09-.39.69.69,0,0,1,.09-.36.89.89,0,0,1,.26-.25,1.33,1.33,0,0,1,.34-.16,1.84,1.84,0,0,1,.38-.08l.35,0a.47.47,0,0,0-.12-.37.5.5,0,0,0-.36-.1,1.1,1.1,0,0,0-.31,0,1.82,1.82,0,0,0-.36.16l-.06-.45a2,2,0,0,1,.42-.18,1.82,1.82,0,0,1,.46-.06,1,1,0,0,1,.49.11.65.65,0,0,1,.3.33,1.6,1.6,0,0,1,.1.63V202a1.8,1.8,0,0,0,0,.28.17.17,0,0,0,.07.13.3.3,0,0,0,.16,0h.06l-.06.46h-.15a.72.72,0,0,1-.28,0,.5.5,0,0,1-.19-.11.52.52,0,0,1-.12-.17.79.79,0,0,1-.33.23A1,1,0,0,1,302.25,202.91Zm.2-.43a.56.56,0,0,0,.26-.07.66.66,0,0,0,.24-.17v-.57a1.51,1.51,0,0,0-.44.06.7.7,0,0,0-.3.15.39.39,0,0,0,0,.52A.38.38,0,0,0,302.45,202.48Z"/><text class="cls-10" transform="translate(266.05 197.11)">八方阁</text><path class="cls-9" d="M266.33,253.86v-3.75h.55v2.32l.83-1.05h.64l-.93,1.18.95,1.3h-.64l-.85-1.16v1.16Z"/><path class="cls-9" d="M268.69,253.86v-2.48h.5l0,.31a1.48,1.48,0,0,1,.3-.26.72.72,0,0,1,.38-.1H270l-.05.57-.09,0h-.1a.64.64,0,0,0-.31.07.6.6,0,0,0-.2.18v1.72Z"/><path class="cls-9" d="M270.83,253.91a.75.75,0,0,1-.37-.09.68.68,0,0,1-.27-.26.8.8,0,0,1-.09-.39.69.69,0,0,1,.09-.36.89.89,0,0,1,.26-.25,1.33,1.33,0,0,1,.34-.16,1.84,1.84,0,0,1,.38-.08l.35,0a.47.47,0,0,0-.12-.37.5.5,0,0,0-.36-.1,1.1,1.1,0,0,0-.31,0,1.82,1.82,0,0,0-.36.16l-.06-.45a2,2,0,0,1,.42-.18,1.82,1.82,0,0,1,.46-.06,1,1,0,0,1,.49.11.65.65,0,0,1,.3.33,1.6,1.6,0,0,1,.1.63V253a1.8,1.8,0,0,0,0,.28.17.17,0,0,0,.07.13.3.3,0,0,0,.16,0h.06l-.06.46h-.15a.72.72,0,0,1-.28,0,.5.5,0,0,1-.19-.11.52.52,0,0,1-.12-.17.79.79,0,0,1-.33.23A1,1,0,0,1,270.83,253.91Zm.2-.43a.56.56,0,0,0,.26-.07.66.66,0,0,0,.24-.17v-.57a1.51,1.51,0,0,0-.44.06.7.7,0,0,0-.3.15.39.39,0,0,0,0,.52A.38.38,0,0,0,271,253.48Z"/><path class="cls-9" d="M273.38,253.91a.65.65,0,0,1-.37-.09.47.47,0,0,1-.21-.23.81.81,0,0,1-.06-.31v-3.17h.55V253a1,1,0,0,0,0,.29.16.16,0,0,0,.1.12.59.59,0,0,0,.21,0l-.06.46Z"/><path class="cls-9" d="M274,250.94v-.58h.56v.58Zm0,2.92v-2.48h.56v2.48Z"/><path class="cls-9" d="M276.15,253.91a1,1,0,0,1-.61-.18,1.12,1.12,0,0,1-.4-.46,1.56,1.56,0,0,1,0-1.29,1.19,1.19,0,0,1,.39-.47,1,1,0,0,1,.62-.18,1.2,1.2,0,0,1,.47.1.91.91,0,0,1,.34.28l-.13.1v-1.7h.56v3.75h-.51l-.05-.46.15.11a1,1,0,0,1-.35.29A1.06,1.06,0,0,1,276.15,253.91Zm.09-.47a.56.56,0,0,0,.33-.1.54.54,0,0,0,.22-.27,1,1,0,0,0,.08-.45,1,1,0,0,0-.08-.44.62.62,0,0,0-.22-.28.64.64,0,0,0-.33-.1.61.61,0,0,0-.36.11.74.74,0,0,0-.23.29,1.3,1.3,0,0,0,0,.84.74.74,0,0,0,.23.29A.61.61,0,0,0,276.24,253.44Z"/><path class="cls-9" d="M279.09,253.91a1.23,1.23,0,0,1-.68-.18,1.12,1.12,0,0,1-.43-.46,1.41,1.41,0,0,1-.15-.65A1.44,1.44,0,0,1,278,252a1.21,1.21,0,0,1,.43-.47,1.45,1.45,0,0,1,1.36,0,1.21,1.21,0,0,1,.43.47,1.44,1.44,0,0,1,.15.65,1.41,1.41,0,0,1-.15.65,1.12,1.12,0,0,1-.43.46A1.23,1.23,0,0,1,279.09,253.91Zm0-.47a.62.62,0,0,0,.51-.23.89.89,0,0,0,.18-.59.93.93,0,0,0-.18-.6.7.7,0,0,0-1,0,.93.93,0,0,0-.18.6.89.89,0,0,0,.18.59A.62.62,0,0,0,279.09,253.44Z"/><path class="cls-9" d="M280.79,253.86v-2.48h.46l.06.4-.11-.1a1.27,1.27,0,0,1,.37-.25,1,1,0,0,1,.47-.1,1,1,0,0,1,.35.06.8.8,0,0,1,.27.18,1,1,0,0,1,.2.32l-.15,0a.89.89,0,0,1,.35-.37,1.19,1.19,0,0,1,1.1,0,.77.77,0,0,1,.32.39,1.51,1.51,0,0,1,.1.6v1.41H284v-1.38a.87.87,0,0,0-.12-.51.45.45,0,0,0-.39-.17.68.68,0,0,0-.27,0,.5.5,0,0,0-.17.15.67.67,0,0,0-.09.21,2,2,0,0,0,0,.25v1.4h-.56v-1.35a1.15,1.15,0,0,0-.06-.41.51.51,0,0,0-.17-.23.62.62,0,0,0-.29-.07.66.66,0,0,0-.38.11.77.77,0,0,0-.26.3l.1-.3v2Z"/><path class="cls-9" d="M286.26,253.91a1.25,1.25,0,0,1-.68-.18,1.12,1.12,0,0,1-.43-.46,1.41,1.41,0,0,1-.15-.65,1.44,1.44,0,0,1,.15-.65,1.21,1.21,0,0,1,.43-.47,1.25,1.25,0,0,1,.68-.17,1.23,1.23,0,0,1,.68.17,1.21,1.21,0,0,1,.43.47,1.44,1.44,0,0,1,.15.65,1.41,1.41,0,0,1-.15.65,1.12,1.12,0,0,1-.43.46A1.23,1.23,0,0,1,286.26,253.91Zm0-.47a.62.62,0,0,0,.51-.23.89.89,0,0,0,.18-.59.93.93,0,0,0-.18-.6.7.7,0,0,0-1,0,.93.93,0,0,0-.18.6.89.89,0,0,0,.18.59A.62.62,0,0,0,286.26,253.44Z"/><path class="cls-9" d="M289.18,253.86v-3.5h1.24a1.16,1.16,0,0,1,.75.21.81.81,0,0,1,.26.64.93.93,0,0,1-.14.51.73.73,0,0,1-.4.3l0-.11a1,1,0,0,1,.61.32,1,1,0,0,1,.2.63.91.91,0,0,1-.3.73,1.2,1.2,0,0,1-.83.27Zm.58-2.1h.58a.56.56,0,0,0,.37-.1.39.39,0,0,0,.14-.34.41.41,0,0,0-.14-.35.63.63,0,0,0-.37-.09h-.58Zm0,1.58h.76a.71.71,0,0,0,.43-.12.48.48,0,0,0,.16-.41.43.43,0,0,0-.17-.41.7.7,0,0,0-.42-.12h-.76Z"/><path class="cls-9" d="M293.12,253.91a1.11,1.11,0,0,1-.58-.14.84.84,0,0,1-.32-.4,1.67,1.67,0,0,1-.11-.62v-1.37h.56v1.33a1,1,0,0,0,.12.54.46.46,0,0,0,.4.18.66.66,0,0,0,.37-.1.61.61,0,0,0,.23-.29l-.09.29v-2h.55v2.48h-.51l-.05-.45.13.14a.82.82,0,0,1-.29.26A.92.92,0,0,1,293.12,253.91Z"/><path class="cls-9" d="M295.49,253.91a.65.65,0,0,1-.37-.09.47.47,0,0,1-.21-.23.81.81,0,0,1-.06-.31v-3.17h.56V253a1.07,1.07,0,0,0,0,.29.16.16,0,0,0,.1.12.59.59,0,0,0,.21,0l-.06.46Z"/><path class="cls-9" d="M296.11,250.94v-.58h.56v.58Zm0,2.92v-2.48h.56v2.48Z"/><path class="cls-9" d="M298.41,253.91a1.31,1.31,0,0,1-.71-.18,1.14,1.14,0,0,1-.44-.46,1.5,1.5,0,0,1-.14-.64,1.59,1.59,0,0,1,.14-.66,1.11,1.11,0,0,1,.44-.47,1.38,1.38,0,0,1,.74-.17,1.45,1.45,0,0,1,.37,0,2.09,2.09,0,0,1,.3.11l-.06.46a1.69,1.69,0,0,0-.27-.1,1.55,1.55,0,0,0-.31,0,.78.78,0,0,0-.58.22.89.89,0,0,0-.2.6.85.85,0,0,0,.2.59.75.75,0,0,0,.57.23,1.06,1.06,0,0,0,.31,0,1.39,1.39,0,0,0,.28-.12l.06.47a1.37,1.37,0,0,1-.31.11A1.6,1.6,0,0,1,298.41,253.91Z"/><path class="cls-9" d="M300.52,253.91a1.11,1.11,0,0,1-.58-.14.86.86,0,0,1-.33-.4,1.68,1.68,0,0,1-.1-.62v-1.37h.56v1.33a1,1,0,0,0,.12.54.45.45,0,0,0,.4.18.61.61,0,0,0,.36-.1.7.7,0,0,0,.24-.29l-.09.29v-2h.55v2.48h-.51l-.05-.45.13.14a.92.92,0,0,1-.29.26A1,1,0,0,1,300.52,253.91Z"/><path class="cls-9" d="M303.07,253.91a.74.74,0,0,1-.38-.09.69.69,0,0,1-.21-.24.82.82,0,0,1-.07-.3v-1.45H302l.05-.45h.33v-.57l.56-.06v.63h.59v.45H303V253a1,1,0,0,0,0,.29.14.14,0,0,0,.11.12,1.11,1.11,0,0,0,.29,0h.15l-.05.46Z"/><path class="cls-9" d="M304.5,253.91a.72.72,0,0,1-.64-.35.8.8,0,0,1-.09-.39.69.69,0,0,1,.09-.36.89.89,0,0,1,.26-.25,1.25,1.25,0,0,1,.35-.16,1.61,1.61,0,0,1,.38-.08l.34,0a.47.47,0,0,0-.12-.37.5.5,0,0,0-.36-.1,1.1,1.1,0,0,0-.31,0,2.11,2.11,0,0,0-.36.16l-.06-.45a2.3,2.3,0,0,1,.43-.18,1.68,1.68,0,0,1,.45-.06,1,1,0,0,1,.49.11.58.58,0,0,1,.3.33,1.6,1.6,0,0,1,.1.63V253a1.8,1.8,0,0,0,0,.28.2.2,0,0,0,.07.13.35.35,0,0,0,.16,0h.06l-.06.46h-.15a.75.75,0,0,1-.28,0,.5.5,0,0,1-.19-.11,1.25,1.25,0,0,1-.12-.17.73.73,0,0,1-.33.23A1,1,0,0,1,304.5,253.91Zm.2-.43a.56.56,0,0,0,.26-.07.66.66,0,0,0,.24-.17v-.57a1.51,1.51,0,0,0-.44.06.84.84,0,0,0-.3.15.37.37,0,0,0-.11.27.33.33,0,0,0,.09.25A.38.38,0,0,0,304.7,253.48Z"/><text class="cls-10" transform="translate(266.05 248.11)">宝音宫</text><path class="cls-9" d="M266.42,315.86v-3.5h1.31a1.83,1.83,0,0,1,.89.21,1.56,1.56,0,0,1,.62.6,1.84,1.84,0,0,1,.22.94,1.87,1.87,0,0,1-.22.94,1.56,1.56,0,0,1-.62.6,1.83,1.83,0,0,1-.89.21Zm.58-.52h.73a1.11,1.11,0,0,0,.6-.15.91.91,0,0,0,.37-.43,1.69,1.69,0,0,0,0-1.3.87.87,0,0,0-.37-.43,1.11,1.11,0,0,0-.6-.15H267Z"/><path class="cls-9" d="M271.11,315.91a1.44,1.44,0,0,1-.75-.18,1.15,1.15,0,0,1-.45-.48,1.41,1.41,0,0,1-.15-.65,1.46,1.46,0,0,1,.14-.63,1.1,1.1,0,0,1,.42-.46,1.27,1.27,0,0,1,1.23,0,.9.9,0,0,1,.37.38,1.21,1.21,0,0,1,.13.55c0,.05,0,.1,0,.15l0,.15h-1.67a.92.92,0,0,0,.15.44.76.76,0,0,0,.3.23,1.11,1.11,0,0,0,.37.07,1.67,1.67,0,0,0,.39-.05,1.71,1.71,0,0,0,.34-.13l.05.46a3.58,3.58,0,0,1-.36.13A1.68,1.68,0,0,1,271.11,315.91Zm-.75-1.59h1.12a.7.7,0,0,0-.05-.25.44.44,0,0,0-.17-.19.5.5,0,0,0-.29-.08.56.56,0,0,0-.41.15A.82.82,0,0,0,270.36,314.32Z"/><path class="cls-9" d="M273.14,315.86l-.95-2.48h.57l.64,1.81.64-1.81h.57l-.95,2.48Z"/><path class="cls-9" d="M274.93,312.94v-.58h.56v.58Zm0,2.92v-2.48h.56v2.48Z"/><path class="cls-9" d="M277.08,315.91a1,1,0,0,1-.61-.18,1.05,1.05,0,0,1-.4-.46,1.56,1.56,0,0,1,0-1.29,1.19,1.19,0,0,1,.39-.47,1,1,0,0,1,.62-.18,1.2,1.2,0,0,1,.47.1.91.91,0,0,1,.34.28l-.13.1v-1.7h.56v3.75h-.52l-.05-.46.16.11a1,1,0,0,1-.35.29A1.06,1.06,0,0,1,277.08,315.91Zm.09-.47a.56.56,0,0,0,.33-.1.6.6,0,0,0,.22-.27,1,1,0,0,0,.08-.45,1,1,0,0,0-.08-.44.69.69,0,0,0-.22-.28.64.64,0,0,0-.33-.1.61.61,0,0,0-.36.11.74.74,0,0,0-.23.29,1.14,1.14,0,0,0,0,.84.74.74,0,0,0,.23.29A.61.61,0,0,0,277.17,315.44Z"/><path class="cls-9" d="M280.1,315.91a1.42,1.42,0,0,1-.74-.18,1.15,1.15,0,0,1-.45-.48,1.41,1.41,0,0,1-.15-.65,1.33,1.33,0,0,1,.14-.63,1.07,1.07,0,0,1,.41-.46,1.29,1.29,0,0,1,1.24,0,1,1,0,0,1,.37.38,1.2,1.2,0,0,1,.12.55.76.76,0,0,1,0,.15.77.77,0,0,1,0,.15h-1.68a1,1,0,0,0,.16.44.73.73,0,0,0,.29.23,1.17,1.17,0,0,0,.38.07,1.58,1.58,0,0,0,.38-.05,1.81,1.81,0,0,0,.35-.13l0,.46a2.65,2.65,0,0,1-.35.13A1.75,1.75,0,0,1,280.1,315.91Zm-.74-1.59h1.11a.53.53,0,0,0-.05-.25.42.42,0,0,0-.16-.19.52.52,0,0,0-.29-.08.54.54,0,0,0-.41.15A.67.67,0,0,0,279.36,314.32Z"/><path class="cls-9" d="M281.48,315.86v-2.48h.5l0,.31a1.48,1.48,0,0,1,.3-.26.72.72,0,0,1,.38-.1h.11l-.05.57-.09,0h-.1a.64.64,0,0,0-.31.07.51.51,0,0,0-.2.18v1.72Z"/><path class="cls-9" d="M283.1,312.94v-.58h.56v.58Zm0,2.92v-2.48h.56v2.48Z"/><path class="cls-9" d="M284.25,317.07v-3.69h.45l.1.46-.16-.07a1.44,1.44,0,0,1,.38-.32,1,1,0,0,1,.51-.12,1,1,0,0,1,1,.65,1.5,1.5,0,0,1,.13.64,1.54,1.54,0,0,1-.13.65,1,1,0,0,1-1,.64,1,1,0,0,1-.49-.1,1.07,1.07,0,0,1-.36-.29l.13-.11v1.66Zm1.19-1.63a.54.54,0,0,0,.46-.23,1.11,1.11,0,0,0,0-1.18.54.54,0,0,0-.46-.23.61.61,0,0,0-.58.38,1.25,1.25,0,0,0,0,.88.58.58,0,0,0,.23.28A.56.56,0,0,0,285.44,315.44Z"/><path class="cls-9" d="M287.72,315.91a.7.7,0,0,1-.37-.09.5.5,0,0,1-.2-.23.67.67,0,0,1-.07-.31v-3.17h.56V315a1,1,0,0,0,0,.29.15.15,0,0,0,.09.12.65.65,0,0,0,.22,0l-.06.46Z"/><path class="cls-9" d="M289.44,315.91a1.21,1.21,0,0,1-.68-.18,1.12,1.12,0,0,1-.43-.46,1.41,1.41,0,0,1-.15-.65,1.44,1.44,0,0,1,.15-.65,1.16,1.16,0,0,1,1.11-.64,1.25,1.25,0,0,1,.68.17,1.21,1.21,0,0,1,.43.47,1.44,1.44,0,0,1,.15.65,1.41,1.41,0,0,1-.15.65,1.12,1.12,0,0,1-.43.46A1.25,1.25,0,0,1,289.44,315.91Zm0-.47a.62.62,0,0,0,.51-.23.88.88,0,0,0,.17-.59.93.93,0,0,0-.17-.6.7.7,0,0,0-1,0,.93.93,0,0,0-.18.6.89.89,0,0,0,.18.59A.62.62,0,0,0,289.44,315.44Z"/><path class="cls-9" d="M292.13,315.91a1,1,0,0,1-.61-.18,1.1,1.1,0,0,1-.39-.46,1.55,1.55,0,0,1-.14-.65,1.53,1.53,0,0,1,.13-.64,1.19,1.19,0,0,1,.39-.47,1.05,1.05,0,0,1,.62-.18,1.12,1.12,0,0,1,.47.1,1,1,0,0,1,.35.28l-.13.1v-1.7h.56v3.75h-.52l-.05-.46.16.11a.91.91,0,0,1-.36.29A1,1,0,0,1,292.13,315.91Zm.09-.47a.57.57,0,0,0,.34-.1.67.67,0,0,0,.22-.27,1.21,1.21,0,0,0,.08-.45,1.19,1.19,0,0,0-.08-.44.78.78,0,0,0-.22-.28.65.65,0,0,0-.34-.1.56.56,0,0,0-.35.11.66.66,0,0,0-.23.29,1.14,1.14,0,0,0,0,.84.66.66,0,0,0,.23.29A.56.56,0,0,0,292.22,315.44Z"/><path class="cls-9" d="M294.51,315.91a.72.72,0,0,1-.64-.35.8.8,0,0,1-.09-.39.69.69,0,0,1,.09-.36.89.89,0,0,1,.26-.25,1.25,1.25,0,0,1,.35-.16,1.61,1.61,0,0,1,.38-.08l.34,0a.47.47,0,0,0-.12-.37.5.5,0,0,0-.36-.1,1.1,1.1,0,0,0-.31,0,2.11,2.11,0,0,0-.36.16l-.06-.45a2.3,2.3,0,0,1,.43-.18,1.68,1.68,0,0,1,.45-.06,1,1,0,0,1,.49.11.58.58,0,0,1,.3.33,1.6,1.6,0,0,1,.1.63V315a1.91,1.91,0,0,0,0,.28.23.23,0,0,0,.07.13.32.32,0,0,0,.16,0h.06l-.06.46h-.15a.75.75,0,0,1-.28,0,.5.5,0,0,1-.19-.11,1.25,1.25,0,0,1-.12-.17.73.73,0,0,1-.33.23A1,1,0,0,1,294.51,315.91Zm.2-.43a.56.56,0,0,0,.26-.07.66.66,0,0,0,.24-.17v-.57a1.51,1.51,0,0,0-.44.06.77.77,0,0,0-.3.15.37.37,0,0,0-.11.27.33.33,0,0,0,.09.25A.38.38,0,0,0,294.71,315.48Z"/><text class="cls-10" transform="translate(266.05 310.11)">神树园</text><path class="cls-9" d="M186.88,176.86v-3.5h1.3a1.9,1.9,0,0,1,.9.21,1.53,1.53,0,0,1,.61.6,2.12,2.12,0,0,1,0,1.88,1.53,1.53,0,0,1-.61.6,1.9,1.9,0,0,1-.9.21Zm.58-.52h.72a1.15,1.15,0,0,0,.61-.15,1,1,0,0,0,.36-.43,1.69,1.69,0,0,0,0-1.3.9.9,0,0,0-.36-.43,1.15,1.15,0,0,0-.61-.15h-.72Z"/><path class="cls-9" d="M191.51,176.91a1.31,1.31,0,0,1-.71-.18,1.14,1.14,0,0,1-.44-.46,1.5,1.5,0,0,1-.14-.64,1.59,1.59,0,0,1,.14-.66,1.11,1.11,0,0,1,.44-.47,1.38,1.38,0,0,1,.74-.17,1.45,1.45,0,0,1,.37,0,2.09,2.09,0,0,1,.3.11l-.06.46a1.69,1.69,0,0,0-.27-.1,1.55,1.55,0,0,0-.31,0,.78.78,0,0,0-.58.22.89.89,0,0,0-.2.6.9.9,0,0,0,.2.59.75.75,0,0,0,.57.23,1.06,1.06,0,0,0,.31,0,1.39,1.39,0,0,0,.28-.12l.06.47a1.37,1.37,0,0,1-.31.11A1.6,1.6,0,0,1,191.51,176.91Z"/><path class="cls-9" d="M193.19,176.91a.79.79,0,0,1-.38-.09.65.65,0,0,1-.26-.26.71.71,0,0,1-.1-.39.61.61,0,0,1,.1-.36.85.85,0,0,1,.25-.25,1.39,1.39,0,0,1,.35-.16,1.72,1.72,0,0,1,.38-.08l.35,0a.56.56,0,0,0-.12-.37.53.53,0,0,0-.36-.1,1.17,1.17,0,0,0-.32,0,2.05,2.05,0,0,0-.35.16l-.06-.45a2,2,0,0,1,.42-.18,1.76,1.76,0,0,1,.46-.06,1,1,0,0,1,.49.11.65.65,0,0,1,.3.33,1.8,1.8,0,0,1,.1.63V176a1.06,1.06,0,0,0,0,.28.2.2,0,0,0,.06.13.35.35,0,0,0,.16,0h.07l-.06.46h-.16a.79.79,0,0,1-.28,0,.46.46,0,0,1-.18-.11.52.52,0,0,1-.12-.17.86.86,0,0,1-.33.23A1.07,1.07,0,0,1,193.19,176.91Zm.19-.43a.54.54,0,0,0,.26-.07.66.66,0,0,0,.24-.17v-.57a1.44,1.44,0,0,0-.43.06.7.7,0,0,0-.3.15.34.34,0,0,0-.12.27.33.33,0,0,0,.09.25A.4.4,0,0,0,193.38,176.48Z"/><path class="cls-9" d="M195.09,176.86v-2.48h.5l0,.46-.16-.14a1.18,1.18,0,0,1,.4-.27,1,1,0,0,1,.46-.1.86.86,0,0,1,.73.32,1.41,1.41,0,0,1,.23.83v1.38h-.56v-1.35a1,1,0,0,0-.12-.54.51.51,0,0,0-.42-.17.71.71,0,0,0-.39.11.68.68,0,0,0-.25.3l.09-.29v1.94Z"/><path class="cls-9" d="M199.55,178.07v-1.66l.13.1a1,1,0,0,1-.34.3,1.22,1.22,0,0,1-.49.1,1,1,0,0,1-.62-.18,1,1,0,0,1-.38-.46,1.54,1.54,0,0,1-.13-.65,1.7,1.7,0,0,1,.13-.64,1.26,1.26,0,0,1,.38-.47,1.05,1.05,0,0,1,.62-.18,1,1,0,0,1,.51.12,1.22,1.22,0,0,1,.36.32l-.16.07.12-.46h.43v3.69Zm-.61-1.63a.55.55,0,0,0,.34-.1.53.53,0,0,0,.22-.28,1.15,1.15,0,0,0,.08-.44,1,1,0,0,0-.17-.6.57.57,0,0,0-.47-.22.56.56,0,0,0-.48.23,1.11,1.11,0,0,0,0,1.18A.56.56,0,0,0,198.94,176.44Z"/><path class="cls-9" d="M201.81,176.91a1.23,1.23,0,0,1-.68-.18,1.12,1.12,0,0,1-.43-.46,1.41,1.41,0,0,1-.15-.65,1.44,1.44,0,0,1,.15-.65,1.21,1.21,0,0,1,.43-.47,1.44,1.44,0,0,1,1.36,0,1.21,1.21,0,0,1,.43.47,1.44,1.44,0,0,1,.15.65,1.41,1.41,0,0,1-.15.65,1.12,1.12,0,0,1-.43.46A1.23,1.23,0,0,1,201.81,176.91Zm0-.47a.62.62,0,0,0,.51-.23.89.89,0,0,0,.18-.59.93.93,0,0,0-.18-.6.7.7,0,0,0-1,0,.93.93,0,0,0-.18.6.89.89,0,0,0,.18.59A.62.62,0,0,0,201.81,176.44Z"/><path class="cls-9" d="M204.15,176.86l-1-2.48h.57l.64,1.81.64-1.81h.57l-1,2.48Z"/><path class="cls-9" d="M205.94,173.94v-.58h.56v.58Zm0,2.92v-2.48h.56v2.48Z"/><path class="cls-9" d="M207.73,176.91a.68.68,0,0,1-.37-.09.47.47,0,0,1-.21-.23.81.81,0,0,1-.06-.31v-3.17h.56V176a1.07,1.07,0,0,0,0,.29.16.16,0,0,0,.1.12.62.62,0,0,0,.21,0l-.06.46Z"/><path class="cls-9" d="M208.35,173.94v-.58h.56v.58Zm0,2.92v-2.48h.56v2.48Z"/><path class="cls-9" d="M209.5,178.07v-3.69H210l.11.46-.17-.07a1.44,1.44,0,0,1,.38-.32,1,1,0,0,1,.52-.12,1,1,0,0,1,.6.18,1,1,0,0,1,.37.47,1.5,1.5,0,0,1,.13.64,1.71,1.71,0,0,1-.12.65,1.13,1.13,0,0,1-.37.46,1,1,0,0,1-.61.18,1.09,1.09,0,0,1-.5-.1,1.07,1.07,0,0,1-.36-.29l.13-.11v1.66Zm1.2-1.63a.55.55,0,0,0,.46-.23,1.17,1.17,0,0,0,0-1.18.55.55,0,0,0-.46-.23.69.69,0,0,0-.36.1.63.63,0,0,0-.23.28,1.19,1.19,0,0,0-.08.44,1.15,1.15,0,0,0,.08.44.54.54,0,0,0,.23.28A.61.61,0,0,0,210.7,176.44Z"/><path class="cls-9" d="M212.34,173.94v-.58h.55v.58Zm0,2.92v-2.48h.55v2.48Z"/><path class="cls-9" d="M214.17,176.86l-.95-2.48h.57l.64,1.81.64-1.81h.57l-.95,2.48Z"/><path class="cls-9" d="M217.11,176.91a1.44,1.44,0,0,1-.75-.18,1.3,1.3,0,0,1-.45-.48,1.41,1.41,0,0,1-.15-.65,1.46,1.46,0,0,1,.14-.63,1.17,1.17,0,0,1,1.08-.64,1.18,1.18,0,0,1,.58.14.88.88,0,0,1,.36.38,1.09,1.09,0,0,1,.13.55.76.76,0,0,1,0,.15s0,.1,0,.15h-1.68a1,1,0,0,0,.15.44.76.76,0,0,0,.3.23,1.11,1.11,0,0,0,.37.07,1.6,1.6,0,0,0,.39-.05,2.09,2.09,0,0,0,.35-.13l0,.46a2,2,0,0,1-.35.13A1.75,1.75,0,0,1,217.11,176.91Zm-.74-1.59h1.11a.7.7,0,0,0,0-.25.49.49,0,0,0-.16-.19.62.62,0,0,0-.71.07A.73.73,0,0,0,216.37,175.32Z"/><path class="cls-9" d="M219.75,176.91a1.1,1.1,0,0,1-.49-.11.87.87,0,0,1-.37-.29l.15-.11,0,.46h-.51v-3.75H219v1.71l-.13-.09a1.12,1.12,0,0,1,.36-.29,1.09,1.09,0,0,1,.48-.11,1,1,0,0,1,.61.18,1.26,1.26,0,0,1,.38.47,1.7,1.7,0,0,1,.13.64,1.55,1.55,0,0,1-.14.65,1.15,1.15,0,0,1-.38.46A1,1,0,0,1,219.75,176.91Zm-.08-.47a.55.55,0,0,0,.34-.11.7.7,0,0,0,.21-.29,1.14,1.14,0,0,0,0-.84.64.64,0,0,0-.21-.29.55.55,0,0,0-.34-.11.61.61,0,0,0-.58.38,1.19,1.19,0,0,0-.08.44,1.15,1.15,0,0,0,.08.44.54.54,0,0,0,.23.28A.56.56,0,0,0,219.67,176.44Z"/><path class="cls-9" d="M222.5,176.91a1.42,1.42,0,0,1-.74-.18,1.15,1.15,0,0,1-.45-.48,1.41,1.41,0,0,1-.15-.65,1.46,1.46,0,0,1,.14-.63,1.14,1.14,0,0,1,.41-.46,1.29,1.29,0,0,1,1.24,0,1,1,0,0,1,.37.38,1.2,1.2,0,0,1,.12.55v.15l0,.15h-1.67a.88.88,0,0,0,.15.44.73.73,0,0,0,.29.23,1.17,1.17,0,0,0,.38.07,1.74,1.74,0,0,0,.39-.05,1.71,1.71,0,0,0,.34-.13l0,.46a1.73,1.73,0,0,1-.35.13A1.75,1.75,0,0,1,222.5,176.91Zm-.74-1.59h1.11a.53.53,0,0,0-.05-.25.42.42,0,0,0-.16-.19.5.5,0,0,0-.29-.08.54.54,0,0,0-.41.15A.74.74,0,0,0,221.76,175.32Z"/><text class="cls-10" transform="translate(190.05 171.11)">张家井</text><path class="cls-9" d="M203.11,228.86v-3h-1v-.55h2.58v.55h-1v3Z"/><path class="cls-9" d="M205.8,228.91a1.23,1.23,0,0,1-.68-.18,1.12,1.12,0,0,1-.43-.46,1.41,1.41,0,0,1-.15-.65,1.44,1.44,0,0,1,.15-.65,1.21,1.21,0,0,1,.43-.47,1.44,1.44,0,0,1,1.36,0,1.21,1.21,0,0,1,.43.47,1.44,1.44,0,0,1,.15.65,1.41,1.41,0,0,1-.15.65,1.12,1.12,0,0,1-.43.46A1.23,1.23,0,0,1,205.8,228.91Zm0-.47a.62.62,0,0,0,.51-.23.89.89,0,0,0,.18-.59.93.93,0,0,0-.18-.6.7.7,0,0,0-1,0,.93.93,0,0,0-.18.6.89.89,0,0,0,.18.59A.62.62,0,0,0,205.8,228.44Z"/><path class="cls-9" d="M208.77,228.91a1.15,1.15,0,0,1-.5-.11.94.94,0,0,1-.37-.29l.16-.11-.05.46h-.51v-3.75h.55v1.71l-.13-.09a1.28,1.28,0,0,1,.37-.29,1.06,1.06,0,0,1,.48-.11,1,1,0,0,1,.61.18,1.14,1.14,0,0,1,.37.47,1.67,1.67,0,0,1,0,1.29,1.1,1.1,0,0,1-.39.46A1,1,0,0,1,208.77,228.91Zm-.08-.47a.58.58,0,0,0,.34-.11.7.7,0,0,0,.21-.29,1.29,1.29,0,0,0,0-.84.64.64,0,0,0-.21-.29.58.58,0,0,0-.34-.11.59.59,0,0,0-.58.38,1,1,0,0,0-.08.44,1,1,0,0,0,.08.44.58.58,0,0,0,.22.28A.61.61,0,0,0,208.69,228.44Z"/><path class="cls-9" d="M211.52,228.91a1.42,1.42,0,0,1-.74-.18,1.15,1.15,0,0,1-.45-.48,1.41,1.41,0,0,1-.15-.65,1.33,1.33,0,0,1,.14-.63,1.07,1.07,0,0,1,.41-.46,1.29,1.29,0,0,1,1.24,0,1,1,0,0,1,.37.38,1.2,1.2,0,0,1,.12.55.76.76,0,0,1,0,.15.77.77,0,0,1,0,.15h-1.68a1,1,0,0,0,.16.44.66.66,0,0,0,.29.23,1.17,1.17,0,0,0,.38.07,1.58,1.58,0,0,0,.38-.05,1.81,1.81,0,0,0,.35-.13l0,.46a1.73,1.73,0,0,1-.35.13A1.75,1.75,0,0,1,211.52,228.91Zm-.74-1.59h1.11a.7.7,0,0,0,0-.25.42.42,0,0,0-.16-.19.52.52,0,0,0-.29-.08.54.54,0,0,0-.41.15A.67.67,0,0,0,210.78,227.32Z"/><path class="cls-9" d="M213.53,228.91a.7.7,0,0,1-.37-.09.5.5,0,0,1-.2-.23.82.82,0,0,1-.07-.31v-3.17h.56V228a1,1,0,0,0,0,.29.17.17,0,0,0,.09.12.65.65,0,0,0,.22,0l-.06.46Z"/><path class="cls-9" d="M215.13,228.91a1.11,1.11,0,0,1-.58-.14.79.79,0,0,1-.32-.4,1.67,1.67,0,0,1-.11-.62v-1.37h.56v1.33a1,1,0,0,0,.12.54.46.46,0,0,0,.4.18.61.61,0,0,0,.36-.1.63.63,0,0,0,.24-.29l-.09.29v-2h.55v2.48h-.51l-.05-.45.13.14a.92.92,0,0,1-.29.26A1,1,0,0,1,215.13,228.91Z"/><path class="cls-9" d="M218,228.91a1.31,1.31,0,0,1-.71-.18,1.06,1.06,0,0,1-.43-.46,1.37,1.37,0,0,1-.15-.64,1.59,1.59,0,0,1,.14-.66,1.17,1.17,0,0,1,.44-.47,1.71,1.71,0,0,1,1.11-.13,1.72,1.72,0,0,1,.3.11l-.06.46a1.69,1.69,0,0,0-.27-.1,1.55,1.55,0,0,0-.31,0,.78.78,0,0,0-.58.22.89.89,0,0,0-.2.6.9.9,0,0,0,.2.59.75.75,0,0,0,.58.23,1,1,0,0,0,.3,0,1.78,1.78,0,0,0,.29-.12l0,.47a1.46,1.46,0,0,1-.3.11A1.75,1.75,0,0,1,218,228.91Z"/><path class="cls-9" d="M219.13,225.94v-.58h.56v.58Zm0,2.92v-2.48h.56v2.48Z"/><path class="cls-9" d="M221.27,228.91a1,1,0,0,1-.61-.18,1.1,1.1,0,0,1-.39-.46,1.55,1.55,0,0,1-.14-.65,1.7,1.7,0,0,1,.13-.64,1.19,1.19,0,0,1,.39-.47,1.05,1.05,0,0,1,.62-.18,1.12,1.12,0,0,1,.47.1,1,1,0,0,1,.35.28l-.13.1v-1.7h.56v3.75H222l-.05-.46.16.11a.91.91,0,0,1-.36.29A1,1,0,0,1,221.27,228.91Zm.09-.47a.57.57,0,0,0,.34-.1.6.6,0,0,0,.22-.27,1.21,1.21,0,0,0,.08-.45,1.19,1.19,0,0,0-.08-.44.69.69,0,0,0-.22-.28.65.65,0,0,0-.34-.1.56.56,0,0,0-.35.11.66.66,0,0,0-.23.29,1.14,1.14,0,0,0,0,.84.66.66,0,0,0,.23.29A.56.56,0,0,0,221.36,228.44Z"/><path class="cls-9" d="M224.08,228.91a1.09,1.09,0,0,1-.57-.14.86.86,0,0,1-.33-.4,1.68,1.68,0,0,1-.1-.62v-1.37h.56v1.33a1,1,0,0,0,.12.54.45.45,0,0,0,.4.18.61.61,0,0,0,.36-.1.7.7,0,0,0,.24-.29l-.1.29v-2h.56v2.48h-.51l-.05-.45.13.14a.92.92,0,0,1-.29.26A1,1,0,0,1,224.08,228.91Z"/><path class="cls-9" d="M225.81,228.86v-2.48h.47l.06.4-.12-.1a1.19,1.19,0,0,1,.38-.25,1,1,0,0,1,.46-.1,1,1,0,0,1,.35.06.75.75,0,0,1,.28.18,1,1,0,0,1,.19.32l-.14,0a.81.81,0,0,1,.34-.37,1.11,1.11,0,0,1,.56-.14,1.15,1.15,0,0,1,.55.13.83.83,0,0,1,.32.39,1.71,1.71,0,0,1,.1.6v1.41h-.56v-1.38a.87.87,0,0,0-.12-.51.45.45,0,0,0-.39-.17.67.67,0,0,0-.26,0,.42.42,0,0,0-.17.15.5.5,0,0,0-.09.21,1,1,0,0,0,0,.25v1.4h-.56v-1.35a1.15,1.15,0,0,0-.06-.41.4.4,0,0,0-.17-.23.61.61,0,0,0-.28-.07.71.71,0,0,0-.39.11.68.68,0,0,0-.25.3l.09-.3v2Z"/><path class="cls-9" d="M231.29,228.91a1.27,1.27,0,0,1-.69-.18,1.19,1.19,0,0,1-.43-.46,1.55,1.55,0,0,1-.14-.65,1.58,1.58,0,0,1,.14-.65,1.29,1.29,0,0,1,.43-.47,1.47,1.47,0,0,1,1.37,0,1.29,1.29,0,0,1,.43.47,1.44,1.44,0,0,1,.15.65,1.41,1.41,0,0,1-.15.65,1.19,1.19,0,0,1-.43.46A1.25,1.25,0,0,1,231.29,228.91Zm0-.47a.59.59,0,0,0,.5-.23.89.89,0,0,0,.18-.59.93.93,0,0,0-.18-.6.58.58,0,0,0-.5-.22.61.61,0,0,0-.51.22.93.93,0,0,0-.18.6.89.89,0,0,0,.18.59A.62.62,0,0,0,231.29,228.44Z"/><path class="cls-9" d="M233,228.86v-2.48h.49l.05.46-.15-.14a1.25,1.25,0,0,1,.39-.27,1,1,0,0,1,.46-.1.85.85,0,0,1,.73.32,1.34,1.34,0,0,1,.23.83v1.38h-.55v-1.35a1,1,0,0,0-.13-.54.51.51,0,0,0-.42-.17.71.71,0,0,0-.39.11.68.68,0,0,0-.25.3l.09-.29v1.94Z"/><path class="cls-9" d="M237,228.91a1.42,1.42,0,0,1-.74-.18,1.15,1.15,0,0,1-.45-.48,1.41,1.41,0,0,1-.15-.65,1.46,1.46,0,0,1,.14-.63,1.07,1.07,0,0,1,.41-.46,1.29,1.29,0,0,1,1.24,0,1,1,0,0,1,.37.38,1.2,1.2,0,0,1,.12.55.76.76,0,0,1,0,.15.77.77,0,0,1,0,.15h-1.67a.88.88,0,0,0,.15.44.73.73,0,0,0,.29.23,1.17,1.17,0,0,0,.38.07,1.74,1.74,0,0,0,.39-.05,2,2,0,0,0,.34-.13l0,.46a1.73,1.73,0,0,1-.35.13A1.75,1.75,0,0,1,237,228.91Zm-.74-1.59h1.11a.53.53,0,0,0,0-.25.42.42,0,0,0-.16-.19.5.5,0,0,0-.29-.08.54.54,0,0,0-.41.15A.74.74,0,0,0,236.21,227.32Z"/><text class="cls-10" transform="translate(205.05 223.11)">百胜里</text><text class="cls-11" transform="translate(124.23 54.65)">vinibise a b<tspan class="cls-12" x="88.94" y="0">a</tspan><tspan class="cls-13" x="97.7" y="0">v</tspan><tspan x="106.9" y="0">gi</tspan><tspan class="cls-14" x="122.51" y="0">f</tspan><tspan x="128.57" y="0">ejo a Sianh Gheln</tspan></text><text class="cls-15" transform="translate(158.02 30.9)">商弦矿铁线路图</text></g></svg>