<svg id="图层_1" data-name="图层 1" xmlns="http://www.w3.org/2000/svg" viewBox="0 0 256 128"><defs><style>.cls-1{fill:#fff;}.cls-2{font-size:60px;font-family:MiSans-Semibold, MiSans;font-weight:600;}</style></defs><rect class="cls-1" width="256" height="128"/><text class="cls-2" transform="translate(38 73.02)">神树园</text><path d="M56.83,106.55V89.75h6.29a9,9,0,0,1,4.27,1,7.28,7.28,0,0,1,2.94,2.88,10.08,10.08,0,0,1,0,9,7.28,7.28,0,0,1-2.94,2.88,8.88,8.88,0,0,1-4.27,1Zm3.07-2.73h3.22a5,5,0,0,0,2.72-.69,4.15,4.15,0,0,0,1.64-1.95,8.45,8.45,0,0,0,0-6.05,4.18,4.18,0,0,0-1.64-2,5.1,5.1,0,0,0-2.72-.68H59.9Z"/><path d="M79.29,106.79a6.93,6.93,0,0,1-3.62-.87,5.61,5.61,0,0,1-2.16-2.3,6.9,6.9,0,0,1-.72-3.14,6.74,6.74,0,0,1,.68-3,5.46,5.46,0,0,1,2-2.23,5.71,5.71,0,0,1,3.19-.85,5.39,5.39,0,0,1,2.88.71A4.44,4.44,0,0,1,83.25,97a5.81,5.81,0,0,1,.58,2.61,7.31,7.31,0,0,1,0,.8c0,.26-.08.54-.14.83H75.88a3.91,3.91,0,0,0,.71,1.81,3.19,3.19,0,0,0,1.3,1,4.21,4.21,0,0,0,1.67.32,6.74,6.74,0,0,0,1.94-.27,7.48,7.48,0,0,0,1.66-.71l.14,2.52a8.82,8.82,0,0,1-1.7.64A9,9,0,0,1,79.29,106.79ZM76,99.18H80.8a3,3,0,0,0-.2-1.08,2.06,2.06,0,0,0-.68-.92,2,2,0,0,0-1.28-.37,2.42,2.42,0,0,0-1.81.67A3.34,3.34,0,0,0,76,99.18Z"/><path d="M89,106.55l-4.61-12h2.93l3,8.31,3-8.31h2.93l-4.61,12Z"/><path d="M97.65,92.73v-3h3v3Zm0,13.82v-12h3v12Z"/><path d="M108.26,106.79a5.29,5.29,0,0,1-3.07-.85,5.34,5.34,0,0,1-1.87-2.27,7.92,7.92,0,0,1,0-6.19,5.4,5.4,0,0,1,1.87-2.27,5.29,5.29,0,0,1,3.07-.85,5.15,5.15,0,0,1,2.23.44,5.73,5.73,0,0,1,1.61,1.12l-.72.62v-8h3v18h-2.81l-.15-2,.87.63a7.7,7.7,0,0,1-1.74,1.21A5.22,5.22,0,0,1,108.26,106.79Zm.43-2.45a2.57,2.57,0,0,0,1.61-.48,2.77,2.77,0,0,0,.92-1.32,6.59,6.59,0,0,0,0-3.93,2.77,2.77,0,0,0-.92-1.32,2.57,2.57,0,0,0-1.61-.48,2.63,2.63,0,0,0-1.59.48,3,3,0,0,0-1,1.32,5.69,5.69,0,0,0,0,3.93,3,3,0,0,0,1,1.32A2.63,2.63,0,0,0,108.69,104.34Z"/><path d="M122.9,106.79a6.93,6.93,0,0,1-3.62-.87,5.61,5.61,0,0,1-2.16-2.3,7.22,7.22,0,0,1-.05-6.18,5.56,5.56,0,0,1,2-2.23,5.71,5.71,0,0,1,3.19-.85,5.44,5.44,0,0,1,2.88.71A4.44,4.44,0,0,1,126.86,97a6,6,0,0,1,.58,2.61,7.31,7.31,0,0,1,0,.8,7,7,0,0,1-.15.83h-7.75a3.91,3.91,0,0,0,.7,1.81,3.29,3.29,0,0,0,1.31,1,4.2,4.2,0,0,0,1.66.32,6.76,6.76,0,0,0,2-.27,7.21,7.21,0,0,0,1.65-.71l.15,2.52a8.6,8.6,0,0,1-4,.91Zm-3.34-7.61h4.85a3.17,3.17,0,0,0-.2-1.08,2.06,2.06,0,0,0-.68-.92,2,2,0,0,0-1.28-.37,2.41,2.41,0,0,0-1.81.67A3.43,3.43,0,0,0,119.56,99.18Z"/><path d="M129.48,106.55v-12h2.78l.07,1.27a5.78,5.78,0,0,1,1.29-1,3.37,3.37,0,0,1,1.81-.51,2.89,2.89,0,0,1,.53,0l-.22,2.93a3.39,3.39,0,0,0-.52-.1l-.51,0a2.67,2.67,0,0,0-1.38.35,2,2,0,0,0-.88.85v8.18Z"/><path d="M137.4,92.73v-3h3v3Zm0,13.82v-12h3v12Z"/><path d="M143.16,112.36V94.55h2.4l.57,2-.89-.31a7.36,7.36,0,0,1,1.8-1.36,5.08,5.08,0,0,1,2.38-.51,5,5,0,0,1,3,.85,5.37,5.37,0,0,1,1.82,2.27,8,8,0,0,1,0,6.19,5.31,5.31,0,0,1-1.82,2.27,5,5,0,0,1-3,.85,5.82,5.82,0,0,1-2.28-.38,6.64,6.64,0,0,1-1.78-1.23l.77-.6v7.78Zm5.8-8a2.38,2.38,0,0,0,2.07-1,5.37,5.37,0,0,0,0-5.44,2.4,2.4,0,0,0-2.07-1,2.62,2.62,0,0,0-2.66,1.8,6.38,6.38,0,0,0,0,3.93,2.62,2.62,0,0,0,2.66,1.8Z"/><path d="M160,106.79a3.26,3.26,0,0,1-1.75-.42,2.62,2.62,0,0,1-1-1.14,3.76,3.76,0,0,1-.33-1.58V88.55h3v13.87a6.11,6.11,0,0,0,.11,1.37.64.64,0,0,0,.43.48,4.18,4.18,0,0,0,.9.07l-.26,2.45Z"/><path d="M168.52,106.79a6.2,6.2,0,0,1-3.33-.85,5.69,5.69,0,0,1-2.11-2.27,6.69,6.69,0,0,1-.72-3.09,6.82,6.82,0,0,1,.72-3.12,5.68,5.68,0,0,1,2.11-2.29,6.9,6.9,0,0,1,6.67,0A5.68,5.68,0,0,1,174,97.46a6.82,6.82,0,0,1,.72,3.12,6.69,6.69,0,0,1-.72,3.09,5.69,5.69,0,0,1-2.11,2.27A6.21,6.21,0,0,1,168.52,106.79Zm0-2.45a2.75,2.75,0,0,0,2.31-1,4.3,4.3,0,0,0,.81-2.71,4.44,4.44,0,0,0-.81-2.76,3,3,0,0,0-4.61,0,4.44,4.44,0,0,0-.82,2.76,4.31,4.31,0,0,0,.82,2.71A2.74,2.74,0,0,0,168.52,104.34Z"/><path d="M181.6,106.79a5.09,5.09,0,0,1-4.93-3.12,7.92,7.92,0,0,1,0-6.19,5.33,5.33,0,0,1,1.87-2.27,5.27,5.27,0,0,1,3.06-.85,5.2,5.2,0,0,1,2.24.44,5.83,5.83,0,0,1,1.6,1.12l-.72.62v-8h3v18h-2.81l-.14-2,.86.63a7.7,7.7,0,0,1-1.74,1.21A5.19,5.19,0,0,1,181.6,106.79Zm.44-2.45a2.54,2.54,0,0,0,1.6-.48,2.79,2.79,0,0,0,.93-1.32,6.59,6.59,0,0,0,0-3.93,2.79,2.79,0,0,0-.93-1.32,2.54,2.54,0,0,0-1.6-.48,2.64,2.64,0,0,0-1.6.48,3,3,0,0,0-1,1.32,5.69,5.69,0,0,0,0,3.93,3,3,0,0,0,1,1.32A2.64,2.64,0,0,0,182,104.34Z"/><path d="M193.05,106.79a3.68,3.68,0,0,1-1.75-.42,3.24,3.24,0,0,1-1.26-1.23,3.86,3.86,0,0,1-.47-2,3.06,3.06,0,0,1,.48-1.74,4,4,0,0,1,1.24-1.22,7.09,7.09,0,0,1,1.68-.76,12.16,12.16,0,0,1,1.79-.42,12.31,12.31,0,0,1,1.56-.15,2.2,2.2,0,0,0-.53-1.5,2.27,2.27,0,0,0-1.63-.47,5.51,5.51,0,0,0-1.57.22,11.4,11.4,0,0,0-1.72.69l-.27-2.42a10.58,10.58,0,0,1,2.17-.8,9.59,9.59,0,0,1,2.2-.26,5.19,5.19,0,0,1,2.32.48,3.25,3.25,0,0,1,1.5,1.54,6.35,6.35,0,0,1,.53,2.8v3.24a6.94,6.94,0,0,0,.08,1.31.72.72,0,0,0,.31.51,1.63,1.63,0,0,0,.66.1h.39l-.27,2.45h-1.08a3.93,3.93,0,0,1-1.19-.17,2.78,2.78,0,0,1-.9-.49,2.82,2.82,0,0,1-.6-.73,3.89,3.89,0,0,1-1.59,1A6.07,6.07,0,0,1,193.05,106.79Zm1.25-2.28a3,3,0,0,0,1-.21,3,3,0,0,0,1.06-.65v-2.74a7.56,7.56,0,0,0-1.68.28,3.63,3.63,0,0,0-1.4.71,1.45,1.45,0,0,0-.57,1.17,1.41,1.41,0,0,0,.39,1.09A1.78,1.78,0,0,0,194.3,104.51Z"/></svg>