<svg xmlns="http://www.w3.org/2000/svg" viewBox="0 0 512 256">
    <defs>
        <style>
            /*自定义区*/
            .路, .口, .白 {
                fill: #fff;
            }
            .底, .点, .向 {
                fill: #2e3192;
            }
            .汉 {
                font-family: MiSans;
                font-weight: 600
            }
            .拉 {
                font-family: 'IBM Plex Sans Condensed';
                font-weight: 600;
            }
            .拉 .向 {
                font-size: 30px;
                font-family: 'IBM Plex Sans';
                font-weight: 700;
            }
            /*不变区*/
            .口, .向 {
                text-anchor: middle;
            }
            .路 .前, .右 {
                text-anchor: end;
            }
            .点 .前, .左 {
                text-anchor: start;
            }
            .汉 .路, .汉 .向 {
                font-size: 48px;
            }
            .汉 .口 {
                font-size: 38px;
            }
            .汉 .点 {
                font-size: 30px;
            }
            .拉 .路 {
                font-size: 22px;
            }
        </style>
    </defs>
    <g id="底板">
        <rect class="底" width="512" height="256" />
        <path class="白"
            d="M502.55,7A2.45,2.45,0,0,1,505,9.45v237.1a2.45,2.45,0,0,1-2.45,2.45H9.45A2.45,2.45,0,0,1,7,246.55V9.45A2.45,2.45,0,0,1,9.45,7h493.1m0-4H9.45A6.45,6.45,0,0,0,3,9.45v237.1A6.45,6.45,0,0,0,9.45,253h493.1a6.45,6.45,0,0,0,6.45-6.45V9.45A6.45,6.45,0,0,0,502.55,3Z" />
        <rect class="白" x="10" y="10" width="84" height="60" />
        <polyline class="底" points="65 37 75 31.4 85 37 75 15" />
        <rect class="路底前" style="fill:#000;" x="96" y="20" width="163" height="51" />
        <rect class="路底左" style="fill:#000;" x="10" y="130" width="163" height="51" />
        <rect class="路底右" style="fill:#000;" x="96" y="20" width="163" height="51" />
    </g>
    <g id="形状">
        <rect class="白" x="250" y="96" width="12" height="90" />
        <polyline class="白" points="250 96 262 96 256 90" />
        <rect class="白" x="211" y="138" width="90" height="12" />
        <polyline class="白" points="211 150 211 138 205 144" />
        <polyline class="白" points="301 138 301 150 307 144" />
        <rect class="白" x="339" y="172" width="163" height="51" />
        <rect class="白" x="10" y="172" width="163" height="51" />
        <rect class="白" x="339" y="20" width="163" height="51" />
    </g>
    <!--填字区-->
    <g class="汉">
        <g class="口">
            <text transform="translate(256 220.93) scale(0.96 1)">先拂右门</text>
        </g>
        <g class="路">
            <text class="前" transform="translate(332 56.89)">慧月街</text>
            <text class="左" transform="translate(8 141.45)">西先拂街</text>
            <text class="右" transform="translate(502 141.78)">中先拂街</text>
        </g>
        <g class="点">
            <text class="前" transform="translate(340 47)">太衒</text>
            <text class="左" transform="translate(10 199)">张家井</text>
            <text class="右" transform="translate(502 199)">王爷府</text>
        </g>
        <g class="向">
            <text transform="translate(37 56.89)">北</text>
        </g>
    </g>
    <g class="拉">
        <g class="口">
            <text transform="translate(256 243.19)">SeonPhourl-fobe:cine</text>
        </g>
        <g class="路">
            <text class="前" transform="translate(330 80.15)">Mesipasijona:puto</text>
            <text class="左" transform="translate(10 165.15)">kokiSeonPhourl:puto</text>
            <text class="右" transform="translate(500 165.15)">huriSeonPhourl:puto</text>
        </g>
        <g class="点">
            <text class="前" transform="translate(342 66)">Honlinuma</text>
            <text class="左" transform="translate(12 218)">Dcanqovilipivebe</text>
            <text class="右" transform="translate(500 218)">Vanqlasoosdomumo</text>
        </g>
        <g class="向">
            <text transform="translate(74.5 60.19)">P</text>
        </g>
    </g>
</svg>