<?xml version="1.0" encoding="utf-8"?>
<!-- Generator: Adobe Illustrator 27.0.0, SVG Export Plug-In . SVG Version: 6.00 Build 0)  -->
<svg version="1.1" id="图层_1" xmlns="http://www.w3.org/2000/svg" xmlns:xlink="http://www.w3.org/1999/xlink" x="0px" y="0px"
	 viewBox="0 0 512 256" style="enable-background:new 0 0 512 256;" xml:space="preserve">
<style type="text/css">
	.白{fill:#FFFFFF;}
</style>
<rect x="240" y="136" class="白" width="12" height="50"/>
<polyline class="白" points="240,96 252,96 246,90 "/>
<polyline class="白" points="211,122 211,134 205,128 "/>
<polyline class="白" points="301,138 301,150 307,144 "/>
<path class="白" d="M252,186l-8.8-8.2c6.2-6.6,38.2-39.8,57.8-39.8v12C289.8,150,265,172.1,252,186z"/>
<path class="白" d="M278.9,157h-12v-18c0-1.6,0-5-9.9-5h-46v-12h46c19.8,0,21.9,11.9,21.9,17V157z"/>
<rect x="240" y="96" class="白" width="12" height="24"/>
</svg>
