<?xml version="1.0" encoding="utf-8"?>
<!-- Generator: Adobe Illustrator 27.0.0, SVG Export Plug-In . SVG Version: 6.00 Build 0)  -->
<svg version="1.1" id="图层_1" xmlns="http://www.w3.org/2000/svg" xmlns:xlink="http://www.w3.org/1999/xlink" x="0px" y="0px"
	 viewBox="0 0 512 256" style="enable-background:new 0 0 512 256;" xml:space="preserve">
<style type="text/css">
	.cls-1{fill:#FFFFFF;}
</style>
<rect x="240" y="96" class="cls-1" width="12" height="90"/>
<polyline class="cls-1" points="240,96 252,96 246,90 "/>
<polyline class="cls-1" points="211,117 211,129 205,123 "/>
<polyline class="cls-1" points="301,138 301,150 307,144 "/>
<path class="cls-1" d="M252,186l-8.8-8.2c6.2-6.6,38.2-39.8,57.8-39.8v12C289.8,150,265,172.1,252,186z"/>
<path class="cls-1" d="M249.4,161.7l-4.1-11.3c17.2-6.3,21.5-14.9,21.6-16.4c0-1.6,0-5-9.9-5h-3v-12h3c19.8,0,21.9,11.9,21.9,17
	C278.9,142.2,269.7,154.3,249.4,161.7z"/>
<rect x="211" y="117" class="cls-1" width="27" height="12"/>
</svg>
