<svg xmlns="http://www.w3.org/2000/svg" viewBox="0 0 512 256">
    <defs>
        <style>
            .cls-1 {
                fill: #2e3192;
            }

            .cls-2 {
                fill: #fff;
            }
        </style>
    </defs>
    <g id="图层_2" data-name="图层 2">
        <g id="底板">
            <rect class="cls-1" width="512" height="256" />
        </g>
<g id="形状">
    <rect class="cls-2" x="250" y="96" width="12" height="90" />
    <polyline class="cls-2" points="250 96 262 96 256 90" />
    <rect class="cls-2" x="250" y="99" width="12" height="90" transform="translate(400 -112) rotate(90)" />
    <polyline class="cls-2" points="211 150 211 138 205 144" />
    <polyline class="cls-2" points="301 138 301 150 307 144" />
    <circle class="cls-1" cx="256" cy="144" r="24" />
    <path class="cls-2"
        d="M256,132a12,12,0,1,1-12,12,12,12,0,0,1,12-12m0-12a24,24,0,1,0,24,24,24,24,0,0,0-24-24Z" />
    <polygon class="cls-1" points="256.15 144.43 232.08 160.08 240.5 168.5 256.15 144.43" />
</g>
    </g>
</svg>