<svg id="图层_1" data-name="图层 1" xmlns="http://www.w3.org/2000/svg" viewBox="0 0 512 256">
    <defs>
        <style>
            .cls-1 {
                fill: #fff;
            }
        </style>
    </defs>
    <rect class="cls-1" x="240" y="96" width="12" height="90" />
    <polyline class="cls-1" points="240 96 252 96 246 90" />
    <polyline class="cls-1" points="211 150 211 138 205 144" />
    <polyline class="cls-1" points="301 138 301 150 307 144" />
    <path class="cls-1" d="M252,186l-8.76-8.2c6.2-6.64,38.17-39.8,57.78-39.8v12C289.8,150,265,172.08,252,186Z" />
    <path class="cls-1"
        d="M260.53,150H254V138h6.53c5.67,0,8.22-3.39,8.23-6.74,0-3.07-2.15-6.38-8.28-6.43-11.13-.1-14.25,0-14.29,0l-.39-12c.13,0,3.26-.1,14.78,0,13.3.12,20.22,9.39,20.18,18.48S273.62,150,260.53,150Z" />
    <rect class="cls-1" x="211" y="138" width="27" height="12" />
</svg>