<svg id="图层_1" data-name="图层 1" xmlns="http://www.w3.org/2000/svg" viewBox="0 0 102 96">
    <defs>
        <style>
            .cls-1 {
                fill: #fff;
            }
        </style>
    </defs>
    <polyline class="cls-1" points="39 6 51 6 45 0" />
    <rect class="cls-1" x="273.5" y="122.5" width="12" height="43" transform="translate(218.5 -225.5) rotate(90)" />
    <polyline class="cls-1" points="6 60 6 48 0 54" />
    <polyline class="cls-1" points="96 48 96 60 102 54" />
    <polygon class="cls-1" points="51 96 45 96 39 96 39 6 51 6 51 96" />
    <path class="cls-1"
        d="M256,186h0l.05-12,0,6,0-6c2.81,0,12-1,12-12V141.71h12V162c0,7-2.17,12.69-6.45,17C266.73,185.77,257.3,186,256,186Z"
        transform="translate(-205 -90)" />
    <rect class="cls-1" x="220.5" y="128.5" width="12" height="31" transform="translate(165.5 -172.5) rotate(90)" />
</svg>