<?xml version="1.0" encoding="utf-8"?>
<!-- Generator: Adobe Illustrator 27.0.0, SVG Export Plug-In . SVG Version: 6.00 Build 0)  -->
<svg version="1.1" id="图层_1" xmlns="http://www.w3.org/2000/svg" xmlns:xlink="http://www.w3.org/1999/xlink" x="0px" y="0px"
	 viewBox="0 0 512 256" style="enable-background:new 0 0 512 256;" xml:space="preserve">
<style type="text/css">
	.白{fill:#FFFFFF;}
</style>
<rect x="250" y="96" class="白" width="12" height="90"/>
<polyline class="白" points="250,96 262,96 256,90 "/>
<rect x="211" y="138" class="白" width="37" height="12"/>
<polyline class="白" points="211,150 211,138 205,144 "/>
<polyline class="白" points="301,138 301,150 307,144 "/>
<path class="白" d="M225,146.9l-10.5-5.8c6.9-12.4,16.9-27.1,25.7-27.1H256v12h-15.3C237.7,127.4,230.5,137,225,146.9z
	 M240.9,125.9L240.9,125.9z"/>
<path class="白" d="M260.8,185.6l-9.5-7.3c0.5-0.7,12.3-16,18.2-21.5c5.9-5.4,23-17.3,23.7-17.8l6.8,9.9
	c-4.8,3.3-18.1,12.7-22.4,16.7C273.3,169.7,264,181.4,260.8,185.6z"/>
<rect x="264" y="138" class="白" width="37" height="12"/>
</svg>
